<svg id="Layer_1" data-name="Layer 1" xmlns="http://www.w3.org/2000/svg" viewBox="0 0 200.93 320.09"><defs><style>.cls-1{fill:#f77f00;}.cls-2{fill:#03cd8c;}</style></defs><polygon class="cls-1" points="92.28 246.41 120.95 200.01 99.09 200.01 107.06 164.2 79.98 211.24 101.26 211.21 92.28 246.41"/><path class="cls-1" d="M259.59,143V127.82a18.56,18.56,0,0,0,8.35-15.33h1.3a2.46,2.46,0,1,0,0-4.92h-4.9v-10a1.65,1.65,0,0,0-3.3,0v10H251.6v-10a1.65,1.65,0,0,0-3.29,0v10h-4.94a2.46,2.46,0,0,0,0,4.92h1.31A18.63,18.63,0,0,0,253,127.84V143Z" transform="translate(-155.86 -95.91)"/><path class="cls-2" d="M312.93,191.33a5.25,5.25,0,0,0,1.92.36h3.77a4.6,4.6,0,0,0,4.8-4.38c0-1.11-.49-1.86-3.48-2.95a21.81,21.81,0,0,0-5.71-1.43c-3.11,0-4.18,2-4.18,4.38v.12h-2.71l-9.76-15.79c-3.5-6-9-10.47-17.81-10.47h-47c-8.79,0-14.3,4.42-17.81,10.47l-9.76,15.79h-2.62s0-.08,0-.12c0-2.42-1.08-4.38-4.18-4.38a21.92,21.92,0,0,0-5.72,1.43c-3,1.09-3.48,1.84-3.48,2.95a4.6,4.6,0,0,0,4.79,4.38h3.8a5.18,5.18,0,0,0,1.9-.36l.17,0h2.9l-1.37,2.22c-3.87,2.53-7.6,7.43-7.42,11l1.31,25.73c0,.73.06,1.41.08,2.08a19.06,19.06,0,0,0,.34,3.44v10.73a3.15,3.15,0,0,0,3.26,3.06h10a3.17,3.17,0,0,0,3.28-3.06v-7.42h88.19v7.42a3.17,3.17,0,0,0,3.27,3.06h10a3.17,3.17,0,0,0,3.27-3.06V235.81a37.08,37.08,0,0,0,.41-5.51l.06-1.13.56-10.86h0l.69-13.74c.19-3.61-3.64-8.6-7.55-11.09l-1.31-2.13h3ZM204.46,233.11a3.47,3.47,0,0,1-3.5-3.45,3.4,3.4,0,0,1,1-2.43,3.53,3.53,0,0,1,2.48-1,3.45,3.45,0,1,1,0,6.89Zm18.06-18.26c0,1.14-.87,1.86-2.25,1.78-5.35-.38-18.5-1.24-19.74-1.24-1.56,0-2.45-.69-2.45-2.24v-5.88c0-2.79,2.1-5.48,6.07-4.56l14,3.91c2.35.65,4.37,2.24,4.37,5Zm61.15.39a1.39,1.39,0,0,1-1.38,1l-25.89,2.54-26-2.54a1.5,1.5,0,0,1-1.39-1l-2.13-5.88c-.21-.57.67-1.07,1.49-1.07h56c.83,0,1.71.5,1.5,1.07Zm24.51,17.87a3.45,3.45,0,1,1,2.48-5.88,3.4,3.4,0,0,1,1,2.43A3.47,3.47,0,0,1,308.18,233.11Zm6.38-25.84v5.88c0,1.55-.89,2.24-2.45,2.24-1.24,0-14.39.86-19.75,1.24-1.37.08-2.24-.64-2.24-1.78v-3.19c0-2.8,2-4.39,4.37-5l14-3.91C312.46,201.79,314.56,204.48,314.56,207.27Zm-7.39-12.85-101.77,0,12.88-20.94c3.44-6,8.34-8.85,14.95-8.85h46.09c6.61,0,11.51,2.9,15,8.91Z" transform="translate(-155.86 -95.91)"/><path class="cls-2" d="M281,111.68a4.58,4.58,0,0,0-2.25,8.87,91.19,91.19,0,0,1,68.89,88.54c0,75.44-74.3,173.55-91.34,195.06-5.63-7.07-17.46-22.34-30.71-42.3a512,512,0,0,1-35.86-62.48C173.32,264.91,165,234.54,165,209.09a91.23,91.23,0,0,1,68.78-88.52,4.57,4.57,0,1,0-2.25-8.86,100.36,100.36,0,0,0-75.67,97.38c0,26.82,8.61,58.51,25.61,94.2A523.06,523.06,0,0,0,218,366.92a568.85,568.85,0,0,0,35.12,47.74,4.56,4.56,0,0,0,6.74-.3c4-4.75,96.95-117.17,96.95-205.27A100.33,100.33,0,0,0,281,111.68Z" transform="translate(-155.86 -95.91)"/></svg>