<svg xmlns="http://www.w3.org/2000/svg" width="203.33" height="316.17" viewBox="0 0 203.33 316.17"><defs><style>.cls-1{isolation:isolate;}.cls-2,.cls-4{fill:#03cd8c;}.cls-3{fill:#f77f00;}.cls-4{mix-blend-mode:multiply;opacity:0.14;}</style></defs><g class="cls-1"><g id="Layer_1" data-name="Layer 1"><path class="cls-2" d="M255.61,96.48A101.65,101.65,0,0,0,154,198.14c0,31.33,11.46,65.81,26.69,97.79A551.28,551.28,0,0,0,219,362.78a613.79,613.79,0,0,0,36.61,49.87s101.66-121.8,101.66-214.51A101.65,101.65,0,0,0,255.61,96.48Zm0,180.4a78.74,78.74,0,1,1,78.74-78.74A78.74,78.74,0,0,1,255.61,276.88Z" transform="translate(-153.95 -96.48)"/><path class="cls-3" d="M271.27,134.94h-5.74v-1.69a2,2,0,0,0-2-2H251a2,2,0,0,0-2,2v1.69h-5.73a6.17,6.17,0,0,0-6.16,6.16v68.08a6.16,6.16,0,0,0,6.16,6.16h28a6.16,6.16,0,0,0,6.16-6.16V141.1A6.17,6.17,0,0,0,271.27,134.94Zm2.8,74.24a2.81,2.81,0,0,1-2.8,2.8h-28a2.81,2.81,0,0,1-2.8-2.8V141.1a2.81,2.81,0,0,1,2.8-2.8h28a2.81,2.81,0,0,1,2.8,2.8Z" transform="translate(-153.95 -96.48)"/><rect class="cls-3" x="88.6" y="94.67" width="29.42" height="18.81"/><polygon class="cls-3" points="105.82 54.65 94.03 73.74 103.02 73.74 99.73 88.47 110.88 69.11 102.13 69.13 105.82 54.65"/><path class="cls-3" d="M260.73,267.56V256.87a19.63,19.63,0,0,0,8.85-16.24H271a2.62,2.62,0,1,0,0-5.23h-5.2V224.79a1.75,1.75,0,0,0-3.49,0V235.4h-10V224.79a1.74,1.74,0,0,0-3.48,0V235.4h-5.23a2.62,2.62,0,0,0,0,5.23h1.38a19.78,19.78,0,0,0,8.85,16.26v10.67Z" transform="translate(-153.95 -96.48)"/><path class="cls-4" d="M255.61,96.48V412.65s101.66-121.8,101.66-214.51A101.65,101.65,0,0,0,255.61,96.48Z" transform="translate(-153.95 -96.48)"/></g></g></svg>