<svg id="Layer_1" data-name="Layer 1" xmlns="http://www.w3.org/2000/svg" viewBox="0 0 203.15 310.76"><defs><style>.cls-1{fill:#03cd8c;}.cls-2{fill:#e8e8e8;}.cls-3{fill:#f77f00;}</style></defs><path class="cls-1" d="M256.15,99.41A101.69,101.69,0,0,0,154.58,201c0,27.11,8.72,59.15,25.91,95.24a4.62,4.62,0,1,0,8.34-4c-16.58-34.83-25-65.54-25-91.26a92.33,92.33,0,1,1,184.66,0c0,76.27-75.12,175.46-92.35,197.21-5.7-7.15-17.65-22.6-31-42.77a4.62,4.62,0,1,0-7.7,5.12,575.33,575.33,0,0,0,35.5,48.27,4.62,4.62,0,0,0,6.81-.3c4-4.8,98-118.47,98-207.53A101.7,101.7,0,0,0,256.15,99.41Z" transform="translate(-154.58 -99.41)"/><path class="cls-2" d="M331.24,201a75.09,75.09,0,1,1-75.09-75.09A75.09,75.09,0,0,1,331.24,201Z" transform="translate(-154.58 -99.41)"/><path class="cls-3" d="M272.78,151.58H266v-2a2.39,2.39,0,0,0-2.38-2.38H248.71a2.39,2.39,0,0,0-2.38,2.38v2h-6.81a7.32,7.32,0,0,0-7.31,7.31v80.83a7.32,7.32,0,0,0,7.31,7.31h33.26a7.33,7.33,0,0,0,7.33-7.31V158.89A7.33,7.33,0,0,0,272.78,151.58Zm3.34,88.14a3.33,3.33,0,0,1-3.34,3.32H239.52a3.32,3.32,0,0,1-3.32-3.32V158.89a3.32,3.32,0,0,1,3.32-3.32h33.26a3.34,3.34,0,0,1,3.34,3.32Z" transform="translate(-154.58 -99.41)"/><rect class="cls-3" x="84.11" y="127.11" width="34.93" height="14.12"/><polygon class="cls-3" points="105.7 71.11 91.71 93.77 102.38 93.77 98.49 111.26 111.71 88.29 101.32 88.3 105.7 71.11"/><path class="cls-1" d="M173.67,305.23c-4.49-8.33-3.25-14,1.56-16.59l10.17-5.49c5-2.69,10.27-.44,14.72,7.82l7.13,13.22a4.64,4.64,0,0,1-1.87,6.26l-18.32,9.88a4.64,4.64,0,0,1-6.27-1.88Z" transform="translate(-154.58 -99.41)"/><path class="cls-1" d="M199.76,313.53a1.92,1.92,0,0,1,.78-2.6h0a1.91,1.91,0,0,1,2.6.77l5.31,9.84a1.93,1.93,0,0,1-.78,2.61h0a1.92,1.92,0,0,1-2.6-.78Z" transform="translate(-154.58 -99.41)"/><path class="cls-1" d="M189.33,319.15a1.92,1.92,0,0,1,.78-2.6h0a1.93,1.93,0,0,1,2.6.78l5.31,9.84a1.94,1.94,0,0,1-.78,2.61h0a1.92,1.92,0,0,1-2.6-.79Z" transform="translate(-154.58 -99.41)"/><path class="cls-1" d="M208.17,349.62a1.6,1.6,0,0,1-.5,2.2h0a1.59,1.59,0,0,1-2.19-.5l-4.94-7.85a1.59,1.59,0,0,1,.5-2.19h0a1.59,1.59,0,0,1,2.2.5Z" transform="translate(-154.58 -99.41)"/><path class="cls-1" d="M219.73,342.35a1.59,1.59,0,0,1-.5,2.2h0A1.6,1.6,0,0,1,217,344l-4.94-7.84a1.6,1.6,0,0,1,.5-2.2h0a1.6,1.6,0,0,1,2.2.5Z" transform="translate(-154.58 -99.41)"/><path class="cls-1" d="M214,346a1.58,1.58,0,0,1-.49,2.19h0a1.6,1.6,0,0,1-2.2-.5l-4.94-7.85a1.59,1.59,0,0,1,.5-2.19h0a1.59,1.59,0,0,1,2.19.5Z" transform="translate(-154.58 -99.41)"/><path class="cls-1" d="M224.51,342.36c4.17,6.64.21,13.45-3.62,15.85l-1.62,1c-4,2.49-11.71,3-15.85-3.62l-1.09-1.73a3.84,3.84,0,0,1,1.21-5.28l14.6-9.18a3.84,3.84,0,0,1,5.28,1.21Z" transform="translate(-154.58 -99.41)"/></svg>