<svg xmlns="http://www.w3.org/2000/svg" viewBox="0 0 206.85 321.65"><defs><style>.cls-1{isolation:isolate;}.cls-2,.cls-3{fill:#03cd8c;}.cls-3{mix-blend-mode:multiply;opacity:0.2;}.cls-4{fill:#f77f00;}</style></defs><g class="cls-1"><g id="Layer_1" data-name="Layer 1"><path class="cls-2" d="M359.31,197c0,94.32-103.43,218.23-103.43,218.23a627.25,627.25,0,0,1-37.24-50.74,559.34,559.34,0,0,1-39-68c-15.5-32.53-27.16-67.6-27.16-99.48a103.43,103.43,0,0,1,206.85,0Z" transform="translate(-152.46 -93.57)"/><path class="cls-3" d="M255.88,93.57V415.22S359.31,291.31,359.31,197A103.42,103.42,0,0,0,255.88,93.57Z" transform="translate(-152.46 -93.57)"/><path class="cls-4" d="M301.71,183.39a4.1,4.1,0,0,0,1.54.3h3.06a3.71,3.71,0,0,0,3.88-3.54c0-.91-.39-1.52-2.81-2.39a17.71,17.71,0,0,0-4.62-1.16c-2.52,0-3.39,1.58-3.39,3.55,0,0,0,.06,0,.09h-2.2l-7.9-12.78c-2.83-4.9-7.3-8.47-14.42-8.47h-38c-7.11,0-11.57,3.57-14.42,8.47l-7.9,12.78H212.4v-.09c0-2-.86-3.55-3.38-3.55a17.7,17.7,0,0,0-4.64,1.16c-2.41.87-2.81,1.48-2.81,2.39a3.72,3.72,0,0,0,3.89,3.54h3.06a4.23,4.23,0,0,0,1.55-.3.5.5,0,0,0,.13,0h2.35l-1.11,1.79c-3.13,2-6.15,6-6,8.91l1.06,20.82c0,.58,0,1.14.06,1.68a16.13,16.13,0,0,0,.28,2.79v8.68a2.56,2.56,0,0,0,2.64,2.48h8.07a2.56,2.56,0,0,0,2.64-2.48v-6h71.39v6a2.56,2.56,0,0,0,2.65,2.48h8.07a2.56,2.56,0,0,0,2.64-2.48V219.4a30.73,30.73,0,0,0,.34-4.46l.05-.91.45-8.8h0l.56-11.11c.15-2.93-2.95-7-6.11-9l-1.08-1.72h2.43ZM213.9,217.22a2.81,2.81,0,0,1-2.83-2.8,2.76,2.76,0,0,1,.83-2,2.87,2.87,0,0,1,2-.81,2.79,2.79,0,1,1,0,5.58Zm14.62-14.78c0,.91-.7,1.5-1.82,1.43-4.33-.3-15-1-16-1-1.27,0-2-.55-2-1.81V196.3c0-2.26,1.7-4.44,4.92-3.69L225,195.77c1.9.53,3.53,1.82,3.53,4.08Zm49.5.31a1.11,1.11,0,0,1-1.11.79l-21,2.06-21.08-2.06a1.22,1.22,0,0,1-1.13-.79L232,198c-.16-.46.55-.86,1.21-.86h45.33c.67,0,1.38.4,1.21.86Zm19.84,14.47a2.79,2.79,0,1,1,0-5.58,2.88,2.88,0,0,1,2,.81,2.79,2.79,0,0,1-2,4.77ZM303,196.3v4.76c0,1.26-.72,1.81-2,1.81-1,0-11.64.7-16,1-1.12.07-1.82-.52-1.82-1.43v-2.59c0-2.26,1.63-3.55,3.54-4.08l11.33-3.16C301.32,191.86,303,194,303,196.3Zm-7.21-10.4-79.92,0c1.52-2.33,10.12-15.43,10.12-15.43a12.86,12.86,0,0,1,11.74-6.52h36.18a12.88,12.88,0,0,1,11.77,6.57Z" transform="translate(-152.46 -93.57)"/><path class="cls-4" d="M200.82,139.72A77.39,77.39,0,0,0,178,194.78a2.79,2.79,0,0,0,2.78,2.78h22.67a2.78,2.78,0,0,0,0-5.56H183.85a72.16,72.16,0,1,1,72,75.09,2.78,2.78,0,0,0,0,5.55,77.87,77.87,0,1,0-55.06-132.92Z" transform="translate(-152.46 -93.57)"/><path class="cls-4" d="M209,188.81c-4.17.1-7.51,2.77-7.51,6.07s3.34,6,7.51,6.06Z" transform="translate(-152.46 -93.57)"/><path class="cls-4" d="M233.46,281.31l13,0c7.51,0,11.09-6.61,11.07-11.14l0-1.85c0-4.37-3.54-11.09-11.12-11.06l-12.9,0a1.74,1.74,0,0,0-3.33.68V263l-8.47,0a1.54,1.54,0,0,0,0,3.08l8.45,0v6.41l-8.43,0a1.54,1.54,0,1,0,0,3.07l8.42,0v5a1.73,1.73,0,0,0,3.31.71Z" transform="translate(-152.46 -93.57)"/></g></g></svg>