<svg xmlns="http://www.w3.org/2000/svg" width="203.48" height="316.41" viewBox="0 0 203.48 316.41"><defs><style>.cls-1{isolation:isolate;}.cls-2,.cls-3{fill:#03cd8c;}.cls-3{mix-blend-mode:multiply;opacity:0.2;}.cls-4{fill:#fff;}</style></defs><g class="cls-1"><g id="Layer_1" data-name="Layer 1"><path class="cls-2" d="M357.72,198.92C357.72,291.7,256,413.59,256,413.59a617,617,0,0,1-36.63-49.92A551.17,551.17,0,0,1,181,296.78c-15.24-32-26.71-66.51-26.71-97.86a101.74,101.74,0,1,1,203.47,0Z" transform="translate(-154.25 -97.18)"/><path class="cls-3" d="M256,97.18V413.59S357.72,291.7,357.72,198.92A101.73,101.73,0,0,0,256,97.18Z" transform="translate(-154.25 -97.18)"/><path class="cls-4" d="M301.06,185.54a4,4,0,0,0,1.52.29h3a3.66,3.66,0,0,0,3.82-3.48c0-.9-.39-1.49-2.77-2.35a17.41,17.41,0,0,0-4.55-1.14c-2.47,0-3.33,1.55-3.33,3.49,0,0,0,.06,0,.09h-2.16l-7.77-12.57c-2.79-4.82-7.18-8.34-14.19-8.34H237.24c-7,0-11.38,3.52-14.18,8.34l-7.77,12.57h-2.08v-.09c0-1.94-.85-3.49-3.32-3.49a17.52,17.52,0,0,0-4.57,1.14c-2.37.86-2.76,1.45-2.76,2.35a3.66,3.66,0,0,0,3.82,3.48h3a4.08,4.08,0,0,0,1.53-.29.5.5,0,0,0,.13,0h2.3l-1.09,1.76c-3.07,2-6,5.92-5.9,8.76l1,20.48c0,.58,0,1.12.06,1.66a16.6,16.6,0,0,0,.27,2.74v8.54a2.53,2.53,0,0,0,2.6,2.44h7.93a2.53,2.53,0,0,0,2.61-2.44V223.6h70.21v5.91a2.54,2.54,0,0,0,2.61,2.44h7.94a2.53,2.53,0,0,0,2.6-2.44V221a29.81,29.81,0,0,0,.34-4.39l0-.89.44-8.65h0l.56-10.94c.14-2.87-2.9-6.85-6-8.83l-1.06-1.69h2.39Zm-86.37,33.27a2.77,2.77,0,0,1-2.78-2.75,2.69,2.69,0,0,1,.81-1.93,2.8,2.8,0,0,1,2-.81,2.75,2.75,0,1,1,0,5.49Zm14.38-14.53c0,.89-.69,1.47-1.79,1.41-4.26-.3-14.72-1-15.71-1-1.24,0-2-.54-2-1.78v-4.68c0-2.23,1.67-4.37,4.84-3.63l11.15,3.1c1.87.53,3.47,1.79,3.47,4Zm48.69.3a1.11,1.11,0,0,1-1.1.78l-20.61,2-20.74-2a1.21,1.21,0,0,1-1.11-.78l-1.7-4.68c-.16-.45.54-.85,1.19-.85h44.59c.66,0,1.36.4,1.19.85Zm19.52,14.23a2.75,2.75,0,1,1,2-4.68,2.7,2.7,0,0,1,.82,1.93A2.78,2.78,0,0,1,297.28,218.81Zm5.08-20.57v4.68c0,1.24-.71,1.78-1.95,1.78-1,0-11.45.69-15.73,1-1.09.06-1.78-.52-1.78-1.41v-2.55c0-2.23,1.6-3.49,3.47-4l11.15-3.1C300.68,193.87,302.36,196,302.36,198.24ZM295.26,188l-78.61,0,9.95-15.18a12.67,12.67,0,0,1,11.55-6.42h35.59a12.69,12.69,0,0,1,11.59,6.47Z" transform="translate(-154.25 -97.18)"/><path class="cls-4" d="M201.82,142.58a76.14,76.14,0,0,0-22.44,54.17,2.73,2.73,0,0,0,2.74,2.72h22.3a2.73,2.73,0,1,0,0-5.46H185.13A71,71,0,1,1,256,267.87a2.73,2.73,0,0,0,0,5.46,76.59,76.59,0,1,0-54.16-130.75Z" transform="translate(-154.25 -97.18)"/><path class="cls-4" d="M209.82,190.87c-4.11.1-7.39,2.72-7.39,6s3.28,5.86,7.39,6Z" transform="translate(-154.25 -97.18)"/><path class="cls-4" d="M233.92,281.86l12.8,0c7.39,0,10.91-6.51,10.89-11l0-1.81c0-4.31-3.48-10.92-10.94-10.89l-12.68,0a1.71,1.71,0,0,0-3.28.66v5l-8.33,0a1.52,1.52,0,0,0,0,3l8.31,0v6.31l-8.29,0a1.51,1.51,0,1,0,0,3l8.28,0v4.93a1.7,1.7,0,0,0,1.71,1.7A1.68,1.68,0,0,0,233.92,281.86Z" transform="translate(-154.25 -97.18)"/></g></g></svg>